<?xml version="1.0" standalone="no"?>
<!DOCTYPE svg PUBLIC "-//W3C//DTD SVG 20010904//EN"
 "http://www.w3.org/TR/2001/REC-SVG-20010904/DTD/svg10.dtd">
<svg version="1.0" xmlns="http://www.w3.org/2000/svg"
 width="3200.000000pt" height="3200.000000pt" viewBox="0 0 3200.000000 3200.000000"
 preserveAspectRatio="xMidYMid meet">
<metadata>
Created by potrace 1.14, written by Peter Selinger 2001-2017
</metadata>
<g transform="translate(0.000000,3200.000000) scale(0.100000,-0.100000)"
fill="#000000" stroke="none">
<path d="M0 16000 l0 -16000 16000 0 16000 0 0 16000 0 16000 -16000 0 -16000
0 0 -16000z m16365 10870 c456 -17 839 -52 1264 -116 3280 -492 6154 -2463
7816 -5359 1077 -1877 1569 -4063 1400 -6228 -204 -2609 -1309 -5011 -3155
-6857 -2346 -2346 -5585 -3481 -8900 -3119 -3434 374 -6500 2390 -8235 5414
-1077 1877 -1569 4063 -1400 6228 204 2608 1310 5012 3155 6857 1902 1902
4426 3030 7095 3170 392 20 615 23 960 10z"/>
<path d="M15578 25590 c-2012 -97 -3883 -783 -5451 -1998 -451 -350 -928 -795
-1291 -1205 -1764 -1990 -2618 -4549 -2401 -7192 162 -1956 930 -3829 2190
-5338 284 -340 674 -743 988 -1021 1990 -1764 4549 -2618 7192 -2401 1956 162
3829 930 5338 2190 340 284 743 674 1021 988 1764 1990 2618 4549 2401 7192
-162 1956 -930 3829 -2190 5338 -374 448 -839 910 -1283 1275 -335 275 -800
602 -1172 824 -1319 787 -2768 1236 -4315 1338 -221 15 -813 20 -1027 10z"/>
</g>
</svg>
